HIERARCHY
ROOT Hips
{
	OFFSET 0.00000 0.00000 0.00000
	CHANNELS 6 Xposition Yposition Zposition Zrotation Yrotation Xrotation 
	JOINT LHipJoint
	{
		OFFSET 0 0 0
		CHANNELS 3 Zrotation Yrotation Xrotation
		JOINT LeftUpLeg
		{
			OFFSET 1.60223 -1.58443 0.78595
			CHANNELS 3 Zrotation Yrotation Xrotation
			JOINT LeftLeg
			{
				OFFSET 2.21690 -6.09089 0.00000
				CHANNELS 3 Zrotation Yrotation Xrotation
				JOINT LeftFoot
				{
					OFFSET 2.34805 -6.45122 0.00000
					CHANNELS 3 Zrotation Yrotation Xrotation
					JOINT LeftToeBase
					{
						OFFSET 0.35452 -0.97402 1.38549
						CHANNELS 3 Zrotation Yrotation Xrotation
						End Site
						{
							OFFSET 0.00000 -0.00000 0.82816
						}
					}
				}
			}
		}
	}
	JOINT RHipJoint
	{
		OFFSET 0 0 0
		CHANNELS 3 Zrotation Yrotation Xrotation
		JOINT RightUpLeg
		{
			OFFSET -1.56524 -1.58443 0.78595
			CHANNELS 3 Zrotation Yrotation Xrotation
			JOINT RightLeg
			{
				OFFSET -2.15558 -5.92241 0.00000
				CHANNELS 3 Zrotation Yrotation Xrotation
				JOINT RightFoot
				{
					OFFSET -2.35077 -6.45870 0.00000
					CHANNELS 3 Zrotation Yrotation Xrotation
					JOINT RightToeBase
					{
						OFFSET -0.26910 -0.73935 1.33295
						CHANNELS 3 Zrotation Yrotation Xrotation
						End Site
						{
							OFFSET -0.00000 -0.00000 0.75962
						}
					}
				}
			}
		}
	}
	JOINT LowerBack
	{
		OFFSET 0 0 0
		CHANNELS 3 Zrotation Yrotation Xrotation
		JOINT Spine
		{
			OFFSET -0.05489 1.97104 -0.02993
			CHANNELS 3 Zrotation Yrotation Xrotation
			JOINT Spine1
			{
				OFFSET -0.00702 1.94230 0.13626
				CHANNELS 3 Zrotation Yrotation Xrotation
				JOINT Neck
				{
					OFFSET 0 0 0
					CHANNELS 3 Zrotation Yrotation Xrotation
					JOINT Neck1
					{
						OFFSET -0.07858 1.62869 -0.02510
						CHANNELS 3 Zrotation Yrotation Xrotation
						JOINT Head
						{
							OFFSET 0.13978 1.59213 -0.29859
							CHANNELS 3 Zrotation Yrotation Xrotation
							End Site
							{
								OFFSET 0.05353 1.64420 -0.10000
							}
						}
					}
				}
				JOINT LeftShoulder
				{
					OFFSET 0 0 0
					CHANNELS 3 Zrotation Yrotation Xrotation
					JOINT LeftArm
					{
						OFFSET 3.48263 1.15278 0.52941
						CHANNELS 3 Zrotation Yrotation Xrotation
						JOINT LeftForeArm
						{
							OFFSET 4.59207 -0.00000 -0.00000
							CHANNELS 3 Zrotation Yrotation Xrotation
							JOINT LeftHand
							{
								OFFSET 2.98109 -0.00000 -0.00000
								CHANNELS 3 Zrotation Yrotation Xrotation
								JOINT LeftFingerBase
								{
									OFFSET 0 0 0
									CHANNELS 3 Zrotation Yrotation Xrotation
									JOINT LeftHandIndex1
									{
										OFFSET 0.48020 -0.00000 -0.00000
										CHANNELS 3 Zrotation Yrotation Xrotation
										End Site
										{
											OFFSET 0.38715 -0.00000 -0.00000
										}
									}
								}
								JOINT LThumb
								{
									OFFSET 0 0 0
									CHANNELS 3 Zrotation Yrotation Xrotation
									End Site
									{
										OFFSET 0.39306 -0.00000 0.39306
									}
								}
							}
						}
					}
				}
				JOINT RightShoulder
				{
					OFFSET 0 0 0
					CHANNELS 3 Zrotation Yrotation Xrotation
					JOINT RightArm
					{
						OFFSET -3.52496 1.12722 0.24548
						CHANNELS 3 Zrotation Yrotation Xrotation
						JOINT RightForeArm
						{
							OFFSET -4.76508 -0.00000 -0.00000
							CHANNELS 3 Zrotation Yrotation Xrotation
							JOINT RightHand
							{
								OFFSET -2.78902 -0.00000 -0.00000
								CHANNELS 3 Zrotation Yrotation Xrotation
								JOINT RightFingerBase
								{
									OFFSET 0 0 0
									CHANNELS 3 Zrotation Yrotation Xrotation
									JOINT RightHandIndex1
									{
										OFFSET -0.72130 -0.00000 -0.00000
										CHANNELS 3 Zrotation Yrotation Xrotation
										End Site
										{
											OFFSET -0.58153 -0.00000 -0.00000
										}
									}
								}
								JOINT RThumb
								{
									OFFSET 0 0 0
									CHANNELS 3 Zrotation Yrotation Xrotation
									End Site
									{
										OFFSET -0.59041 -0.00000 0.59041
									}
								}
							}
						}
					}
				}
			}
		}
	}
}
MOTION
Frames: 14
Frame Time: .0083333
24.6792 15.71 0.1322 0 0 0 0 0 0 -21 0 0 0 0 0 0 0 0 0 0 0 0 0 0 21 0 0 0 0 0 0 0 0 0 0 0 0 0 0 0 0 0 0 0 0 0 0 -16 0 0 21 0 0 11 0 0 0 -8 0 0 0 0 0 0 0 0 0 0 0 0 0 0 0 0 0 0 0 0 8 0 0 0 0 0 0 0 0 0 0 0 0 0 0 0 0 0
24.6792 15.7100 0.1322 60.0849 -85.8243 -55.6346 0.0000 0.0000 0.0000 -28.6145 -1.8169 -16.0649 3.5565 11.5456 34.1428 2.4202 -2.9518 -28.6979 0.6070 -4.9867 -13.8706 0.0000 0.0000 0.0000 15.5906 9.2147 -15.3307 -3.4704 -11.4202 33.7103 -2.4369 -0.3053 -29.6857 -0.4320 4.2177 -11.6900 -8.7236 1.8258 0.1762 0.8888 2.0656 -5.7824 5.7086 1.4729 -6.5559 -10.2830 -4.6866 -1.7597 10.3617 -6.6870 7.0139 4.5839 -3.3066 3.0543 -0.0000 -0.0000 0.0000 -99.6374 14.4714 -11.1787 20.8290 -31.6282 -5.9600 -0.0000 -0.0000 43.5506 15.5665 34.9624 9.0699 -7.1250 0.0000 -0.0000 -22.4308 64.6103 -10.9058 -0.0000 -0.0000 0.0000 93.1538 -9.6372 10.9436 -18.2111 28.4267 -4.6493 0.0000 0.0000 9.5051 4.4469 25.6788 1.9301 7.1250 -0.0000 -0.0000 20.4250 -5.5197 19.6906
24.6688 15.7172 0.1336 31.6619 -86.5735 -26.8113 0.0000 0.0000 0.0000 -26.4440 -2.2072 -17.1758 3.8233 11.9215 35.4548 2.4776 -3.9131 -28.8560 0.5835 -4.8911 -13.5981 0.0000 0.0000 0.0000 17.6779 8.9507 -15.1508 -3.2467 -11.0841 32.5641 -2.3425 -1.0184 -29.3458 -0.3833 3.9758 -11.0086 -6.8892 1.5642 -0.3852 1.3737 1.8422 -5.8472 5.2163 1.2672 -6.1847 -10.3968 -4.6856 -1.6418 10.4687 -6.6805 6.7736 4.6401 -3.3062 2.9700 0.0000 -0.0000 0.0000 -100.0521 15.1544 -1.7222 19.5875 -30.1421 -5.3226 -0.0000 -0.0000 19.8526 14.9204 35.7136 8.8411 -7.1250 0.0000 -0.0000 -23.9655 65.1073 -11.9669 0.0000 -0.0000 0.0000 93.2097 -9.4939 9.5772 -17.7685 27.8597 -4.4405 0.0000 0.0000 9.4094 6.9578 28.1113 3.2910 7.1250 -0.0000 -0.0000 21.6884 -3.3083 22.0727
24.6694 15.7175 0.1335 16.2409 -86.3532 -11.2178 0.0000 0.0000 0.0000 -25.4827 -2.3815 -17.6590 3.9096 12.0391 35.8704 2.4668 -4.4451 -28.6969 0.5847 -4.8960 -13.6121 0.0000 0.0000 0.0000 18.5795 8.8238 -15.2301 -3.1969 -11.0071 32.3040 -2.3180 -1.3483 -29.3120 -0.2967 3.5023 -9.6804 -6.1639 1.4110 -0.5269 1.5777 1.6739 -5.8925 5.0345 1.1495 -6.0999 -10.5238 -4.6942 -1.4809 10.6360 -6.7043 6.6248 4.7164 -3.3214 2.9113 0.0000 -0.0000 0.0000 -100.1859 18.7303 3.1919 23.0448 -34.1378 -7.1634 -0.0000 -0.0000 15.3660 15.5587 38.4346 9.8193 -7.1250 0.0000 -0.0000 -26.6366 67.6804 -14.9407 0.0000 -0.0000 0.0000 93.2285 -9.5163 8.3324 -17.4061 27.3900 -4.2725 0.0000 0.0000 9.0105 9.8214 30.2612 4.9859 7.1250 -0.0000 -0.0000 23.0912 -1.3409 24.6561
24.6665 15.7124 0.1422 17.9966 -86.2618 -13.0870 0.0000 0.0000 0.0000 -25.6541 -2.4551 -17.6518 3.9876 12.1439 36.2431 2.5174 -4.5851 -28.9799 0.5562 -4.7771 -13.2738 0.0000 0.0000 0.0000 18.4274 8.7043 -14.9794 -3.1479 -10.9307 32.0464 -2.2974 -1.3881 -29.1978 -0.2480 3.2044 -8.8483 -6.2893 1.4311 -0.4517 1.5127 1.6950 -5.8154 5.0344 1.1629 -6.0666 -10.5941 -4.7470 -1.4491 10.7115 -6.7822 6.6206 4.7482 -3.3608 2.9181 0.0000 0.0000 0.0000 -100.1763 18.4207 2.7924 22.4492 -33.4810 -6.8320 -0.0000 -0.0000 16.1764 15.4346 38.0903 9.6661 -7.1250 0.0000 -0.0000 -26.3071 67.3459 -14.5481 0.0000 0.0000 0.0000 93.2412 -9.5526 7.1393 -17.0399 26.9104 -4.1054 0.0000 0.0000 8.4571 12.8756 32.2673 6.9576 7.1250 -0.0000 -0.0000 24.5236 0.5393 27.3882
24.6666 15.7083 0.1502 18.3287 -86.1603 -13.4925 0.0000 0.0000 0.0000 -25.7423 -2.6270 -17.5601 4.0098 12.1735 36.3485 2.5419 -4.5731 -29.1292 0.5369 -4.6951 -13.0409 0.0000 0.0000 0.0000 18.3552 8.6466 -14.9112 -3.1525 -10.9379 32.0708 -2.2997 -1.4836 -29.2476 -0.2478 3.2035 -8.8458 -6.3110 1.4239 -0.3714 1.4627 1.6816 -5.7538 4.9933 1.1546 -6.0437 -10.5341 -4.7887 -1.4644 10.6494 -6.8337 6.6119 4.7162 -3.3859 2.9197 -0.0000 0.0000 0.0000 -100.1548 18.2235 2.7961 22.0786 -33.0657 -6.6287 -0.0000 -0.0000 16.6885 15.5664 38.3148 9.7989 -7.1250 0.0000 -0.0000 -26.4628 67.5794 -14.7779 -0.0000 0.0000 0.0000 93.2817 -9.5893 6.0485 -16.7182 26.4848 -3.9608 0.0000 0.0000 7.8290 16.1679 33.9940 9.2074 7.1250 -0.0000 -0.0000 26.0100 2.2302 30.2636
24.6658 15.7056 0.1582 19.1595 -86.0180 -14.3438 0.0000 0.0000 0.0000 -25.8877 -2.7848 -17.4607 4.0033 12.1648 36.3176 2.5432 -4.4982 -29.1498 0.5709 -4.8387 -13.4492 0.0000 0.0000 0.0000 18.2123 8.5246 -14.9864 -3.1780 -10.9778 32.2052 -2.3107 -1.4650 -29.3094 -0.2644 3.3076 -9.1364 -6.3360 1.3665 -0.3688 1.3857 1.6039 -5.6938 4.9306 1.1118 -5.9682 -10.4634 -4.7688 -1.5009 10.6106 -6.7996 6.5771 4.6936 -3.3671 2.9081 0.0000 -0.0000 0.0000 -100.4519 17.0904 0.7167 21.0362 -31.8706 -6.0690 -0.0000 -0.0000 19.2265 15.5095 38.2684 9.7522 -7.1250 0.0000 -0.0000 -26.4637 67.5222 -14.7445 0.0000 -0.0000 0.0000 93.3236 -9.5918 5.2099 -16.4259 26.0948 -3.8314 0.0000 0.0000 7.0856 22.2952 36.7420 13.7817 7.1250 -0.0000 -0.0000 28.5954 5.1746 35.6507
24.6635 15.7018 0.1654 19.7172 -85.8437 -14.9552 0.0000 0.0000 0.0000 -26.0231 -2.8851 -17.3274 3.9984 12.1583 36.2943 2.5436 -4.4872 -29.1539 0.6011 -4.9629 -13.8027 0.0000 0.0000 0.0000 18.0971 8.4483 -14.9832 -3.2005 -11.0128 32.3230 -2.3306 -1.4707 -29.4354 -0.2675 3.3271 -9.1909 -6.3246 1.3039 -0.3942 1.2863 1.5230 -5.5969 4.8246 1.0624 -5.8345 -10.4817 -4.7719 -1.6428 10.6852 -6.8032 6.6693 4.7155 -3.3631 2.9624 -0.0000 -0.0000 0.0000 -100.5485 16.6140 0.0372 20.7086 -31.4866 -5.8970 -0.0000 -0.0000 20.3407 15.0498 38.2440 9.4497 -7.1250 0.0000 -0.0000 -26.9492 67.3627 -14.9340 -0.0000 -0.0000 0.0000 93.3870 -9.4935 4.4383 -16.0926 25.6460 -3.6859 0.0000 0.0000 6.2829 21.8935 37.0627 13.6149 7.1250 -0.0000 -0.0000 28.3908 5.4330 35.4336
24.6621 15.6978 0.1716 19.3155 -85.6872 -14.6339 0.0000 0.0000 0.0000 -26.0679 -2.9146 -17.1930 3.9914 12.1490 36.2610 2.5422 -4.5494 -29.1352 0.6208 -5.0421 -14.0287 0.0000 0.0000 0.0000 18.0835 8.4474 -14.9249 -3.2236 -11.0485 32.4438 -2.3458 -1.6232 -29.5869 -0.2711 3.3494 -9.2531 -6.2409 1.2767 -0.3620 1.1793 1.4866 -5.5265 4.6662 1.0340 -5.7652 -10.4409 -4.8167 -1.6232 10.7791 -6.8786 6.6935 4.7345 -3.3982 2.9761 0.0000 0.0000 0.0000 -100.1551 14.8747 -1.5067 18.8616 -29.2464 -4.9631 -0.0000 -0.0000 22.3186 14.7715 37.0850 9.0343 -7.1250 0.0000 -0.0000 -25.7510 66.2762 -13.6005 0.0000 0.0000 0.0000 93.5464 -9.5490 3.6258 -15.8593 25.3295 -3.5855 0.0000 0.0000 5.5034 21.5324 37.5036 13.5074 7.1250 -0.0000 -0.0000 28.1951 5.8076 35.2829
24.6624 15.6961 0.1776 19.5273 -85.5756 -14.8901 0.0000 0.0000 0.0000 -26.1405 -2.8864 -17.1314 3.9835 12.1384 36.2233 2.5339 -4.6198 -29.0735 0.6502 -5.1582 -14.3602 0.0000 0.0000 0.0000 18.0196 8.4483 -14.9313 -3.2472 -11.0848 32.5664 -2.3547 -1.7528 -29.6904 -0.2844 3.4299 -9.4780 -6.1742 1.2654 -0.3206 1.0536 1.4676 -5.4858 4.4966 1.0162 -5.7356 -10.3321 -4.8431 -1.4868 10.8463 -6.9323 6.6141 4.7387 -3.4254 2.9341 0.0000 0.0000 0.0000 -100.1122 14.7658 -1.1975 18.9258 -29.3263 -4.9944 -0.0000 -0.0000 22.2366 14.3809 37.3236 8.8364 -7.1250 0.0000 -0.0000 -26.4862 66.3703 -14.0688 0.0000 0.0000 0.0000 93.7521 -9.7093 2.9357 -15.7076 25.1226 -3.5209 0.0000 0.0000 4.7661 21.2437 37.8666 13.4213 7.1250 -0.0000 -0.0000 28.0387 6.1182 35.1658
24.6631 15.6952 0.1829 20.8043 -85.4994 -16.1950 0.0000 0.0000 0.0000 -26.2816 -2.7877 -17.1196 3.9772 12.1300 36.1935 2.5267 -4.7584 -29.0079 0.6435 -5.1317 -14.2847 0.0000 0.0000 0.0000 17.8699 8.4773 -14.9568 -3.2705 -11.1206 32.6877 -2.3673 -1.8162 -29.7924 -0.2915 3.4717 -9.5948 -6.2191 1.2486 -0.3059 0.9580 1.4419 -5.4289 4.4227 1.0004 -5.6786 -10.3545 -4.8467 -1.4812 10.9350 -6.9489 6.6615 4.7690 -3.4323 2.9527 0.0000 -0.0000 0.0000 -100.5244 16.1427 0.7063 20.8197 -31.6172 -5.9551 -0.0000 -0.0000 20.3623 13.8023 38.7941 8.7501 -7.1250 0.0000 -0.0000 -29.1077 67.4546 -16.2693 0.0000 -0.0000 0.0000 93.8541 -9.8489 2.5115 -15.5795 24.9472 -3.4667 0.0000 0.0000 4.0565 21.4327 37.6270 13.4774 7.1250 -0.0000 -0.0000 28.1411 5.9130 35.2419
24.6633 15.6939 0.1869 21.9773 -85.4606 -17.3859 0.0000 0.0000 0.0000 -26.3922 -2.5863 -17.1683 3.9749 12.1269 36.1823 2.5218 -4.9816 -28.9439 0.6256 -5.0613 -14.0836 0.0000 0.0000 0.0000 17.7476 8.5632 -14.9663 -3.2917 -11.1529 32.7974 -2.3778 -1.9088 -29.8922 -0.2941 3.4871 -9.6381 -6.2410 1.2317 -0.3050 0.8665 1.4171 -5.3810 4.3405 0.9841 -5.6227 -10.4701 -4.8375 -1.5334 11.0812 -6.9506 6.7877 4.8314 -3.4307 3.0077 -0.0000 0.0000 0.0000 -100.6997 15.8184 0.6716 20.9080 -31.7208 -6.0015 -0.0000 -0.0000 20.4191 13.4500 39.1542 8.5871 -7.1250 0.0000 -0.0000 -30.0167 67.6487 -16.9438 -0.0000 0.0000 0.0000 93.9844 -10.0520 2.2304 -15.5244 24.8715 -3.4435 0.0000 0.0000 3.6159 21.3547 37.6761 13.4399 7.1250 -0.0000 -0.0000 28.1028 5.9517 35.1965
24.6635 15.6923 0.1904 22.1985 -85.4450 -17.6131 0.0000 0.0000 0.0000 -26.4186 -2.3899 -17.2486 3.9790 12.1324 36.2020 2.5173 -5.1602 -28.8908 0.6363 -5.1035 -14.2039 0.0000 0.0000 0.0000 17.7143 8.6275 -14.9845 -3.3066 -11.1755 32.8742 -2.3808 -2.0064 -29.9479 -0.3042 3.5461 -9.8030 -6.1441 1.2153 -0.3061 0.7752 1.3957 -5.3471 4.1913 0.9643 -5.5763 -10.5180 -4.8379 -1.6047 11.1402 -6.9598 6.9242 4.8548 -3.4327 3.0646 -0.0000 0.0000 0.0000 -100.4968 14.4777 0.1036 19.7889 -30.3872 -5.4242 -0.0000 -0.0000 21.0915 13.4226 38.5261 8.4550 -7.1250 0.0000 -0.0000 -29.1485 67.1153 -16.0720 -0.0000 0.0000 0.0000 94.1772 -10.3061 2.0636 -15.5470 24.9026 -3.4530 0.0000 0.0000 3.4870 21.1664 37.8070 13.3524 7.1250 -0.0000 -0.0000 28.0093 6.0570 35.0908
24.6639 15.6898 0.1932 21.1869 -85.4118 -16.6161 0.0000 0.0000 0.0000 -26.3426 -2.2555 -17.3160 3.9894 12.1462 36.2512 2.5135 -5.3435 -28.8418 0.6386 -5.1127 -14.2304 0.0000 0.0000 0.0000 17.7796 8.5834 -15.0064 -3.3136 -11.1862 32.9103 -2.3797 -2.0539 -29.9593 -0.3201 3.6369 -10.0573 -5.9929 1.2096 -0.3100 0.7208 1.3927 -5.3036 4.0498 0.9519 -5.5196 -10.5126 -4.8575 -1.6076 11.1550 -6.9928 6.9790 4.8564 -3.4485 3.0853 0.0000 0.0000 0.0000 -100.5737 14.3708 0.7803 20.1340 -30.8035 -5.5998 -0.0000 -0.0000 20.6186 13.0698 38.3758 8.2012 -7.1250 0.0000 -0.0000 -29.3275 66.8839 -16.0251 0.0000 0.0000 0.0000 94.3459 -10.5565 1.9758 -15.6071 24.9850 -3.4783 0.0000 0.0000 3.5137 20.8592 38.0908 13.2284 7.1250 -0.0000 -0.0000 27.8518 6.2946 34.9388
